PathFileType	4	(X/Y/Z)	pose_F01_0-96.trc
DataRate	CameraRate	NumFrames	NumMarkers	Units	OrigDataRate	OrigDataStartFrame	OrigNumFrames
30	30	10	21	m	30	16	96
Frame#	Time	CHip			RHip			RKnee			RAnkle			RBigToe			RSmallToe			RHeel			LHip			LKnee			LAnkle			LBigToe			LSmallToe			LHeel			Neck			Nose			RShoulder			RElbow			RWrist			LShoulder			LElbow			LWrist			
		X1	Y1	Z1	X2	Y2	Z2	X3	Y3	Z3	X4	Y4	Z4	X5	Y5	Z5	X6	Y6	Z6	X7	Y7	Z7	X8	Y8	Z8	X9	Y9	Z9	X10	Y10	Z10	X11	Y11	Z11	X12	Y12	Z12	X13	Y13	Z13	X14	Y14	Z14	X15	Y15	Z15	X16	Y16	Z16	X17	Y17	Z17	X18	Y18	Z18	X19	Y19	Z19	X20	Y20	Z20	X21	Y21	Z21	
16	0.5333333333333333	-0.2513659264597963	1.831679182229534	-0.5590591466913282	-0.26816143663860026	1.8293933437779295	-0.4972336255175148																-0.2334561043723282	1.833507340085131	-0.6207203190998255	-0.23464950388180156	1.701539263706417	-0.5899599876034378													-0.24678163538784476	1.9924152680725309	-0.5947293349615508	-0.23643428465445762	2.0608446929691566	-0.5597522278484888	-0.2709312258168021	1.989814085381844	-0.5053736869787162	-0.28704620422546634	1.9059816907323313	-0.4541687145558527	-0.287796895060721	1.8488028918822783	-0.37376700759849335	-0.2206705186066416	1.996261555961204	-0.6876470458150613	-0.20931055540016044	1.9085856617538095	-0.7103033399820771	-0.20400771715692156	1.8278005361929905	-0.6963173412421076
17	0.5666666666666667	-0.25108777790996	1.8292646940369142	-0.5673456722264391	-0.27003019094423325	1.8279677684433304	-0.5036864539802166																-0.2372115471771284	1.8286580118990734	-0.6244686637211619	-0.23464950388180156	1.701539263706417	-0.5899599876034378													-0.24651848241705054	1.9925614702259065	-0.6033547229231974	-0.23467228010117736	2.0571387249765847	-0.5533024306942396	-0.27103352018005505	1.9895908682865595	-0.5223932472810123	-0.2871529903725725	1.9114210919115984	-0.4636286596202401	-0.287796895060721	1.8488028918822783	-0.37376700759849335	-0.21638882636994192	1.9929445258732388	-0.6913870672407062	-0.2009626515337833	1.9079675870778947	-0.7309915023284833	-0.19152568528137143	1.8281634530616397	-0.7132449430727973
18	0.6	-0.2555645922391025	1.8246339564185579	-0.5710946489910785	-0.27242651958385644	1.825013933072256	-0.5096585271342549																-0.23975164197541518	1.824704823390665	-0.6303153080852211	-0.23834037633674518	1.6952025607505912	-0.5945133195692163													-0.24640203976249822	1.9904064729954067	-0.6023699675533989	-0.23484238849033268	2.0533956249436844	-0.5528065723018004	-0.2708454396906209	1.9883116743779812	-0.5216945424771335	-0.2860217920656213	1.915406076519394	-0.4780711666713042	-0.2796237513570075	1.8694357817591214	-0.39139893972556894	-0.21798607578959905	1.989541149620653	-0.6771527750435098	-0.20351840788494155	1.9051978314443159	-0.7400209243807044	-0.18798471804440536	1.8236813867207504	-0.732561904991092
19	0.6333333333333333	-0.25622243552988455	1.8327517597012157	-0.5754178854590717	-0.27496992274125903	1.8323781302276674	-0.5119187595969217																-0.24228960652460274	1.8323856603365403	-0.632288744879406	-0.23834037633674518	1.6952025607505912	-0.5945133195692163													-0.24929820451255894	1.9913313733521554	-0.6034679686061609	-0.24404647732378354	2.051751930805172	-0.5382579311629373	-0.27184476041621025	1.9907274634477794	-0.5250576207038762	-0.2874679745559584	1.9160271036736471	-0.49052140902168173	-0.27094912490574685	1.8925924832516583	-0.41862894790013944	-0.21981276714051606	1.9913304662516522	-0.6836304584468048	-1.2035852684215262	1.814218987028189	0.25629875774735317	-0.19348686556578512	1.827000923607583	-0.7350513435945705
20	0.6666666666666666	-0.25598344216097324	1.8341370291437176	-0.575508765301151	-0.27472543604172817	1.8337450185525621	-0.5119784946066264																-0.2420003199566878	1.8333734804263822	-0.6324113341579519	-0.23834037633674518	1.6952025607505912	-0.5945133195692163													-0.25244446525265224	1.9924447954844042	-0.6048072122844662	-0.2562134498575407	2.05126124909159	-0.5250976895630991	-0.2749116559739647	1.9921858333647013	-0.5266930807444898	-0.30013418175484396	1.9142780224587252	-0.49433811506142145	-0.2732068231615538	1.9216124870977933	-0.44040006564704276	-0.2228713503640713	1.993844148436987	-0.6847278937301566	-1.2019666790446983	1.8148240250937888	0.2453326180024108	-0.19647645530448504	1.8304633428256654	-0.7302107737326776
21	0.7	-0.25804231559841556	1.8318651767378138	-0.5816750949884761	-0.2769666568369967	1.831845815998633	-0.518325880159877																-0.24083330513449644	1.8324534741221974	-0.6377695170529522	-0.23834037633674518	1.6952025607505912	-0.5945133195692163													-0.25354099825512694	1.9914789054341568	-0.6078195519992408	-0.2621810191903391	2.0514060578327715	-0.5269510207878714	-0.2800160549106893	1.9913234713798433	-0.5339226869662406	-0.3023303846162204	1.9167417646728941	-0.4924606549558671	-0.27205006694939704	1.9394271224705684	-0.44815969772050795	-0.22501410386374965	1.9938035375822238	-0.6824142078834605	-1.2109247647305967	1.81878357151251	0.2557259296272687	-0.19946604504318494	1.8339257620437477	-0.7253702038707848
22	0.7333333333333333	-0.25892180781215013	1.8351359087838341	-0.5852999657384009	-0.27695989968198975	1.8350631176149186	-0.5231372818640764																-0.2414396390293021	1.8335449616745654	-0.6413596255711415	-0.23834037633674518	1.6952025607505912	-0.5945133195692163													-0.25448847026492166	1.9918438180204672	-0.6109816069125424	-0.2641042898921323	2.050349885037381	-0.5327259066556385	-0.2820015161425925	1.9903945020309692	-0.5398916558258656	-0.30691721923913456	1.9139439043127473	-0.4989570805847704	-0.27255200017695835	1.952369731924447	-0.46134730712108174	-0.22594552269449117	1.9916187797072564	-0.6851811009905452	-1.2165861303107537	1.8199546194614828	0.2622442033718368	-0.20227934678898	1.836437531185984	-0.7350785817267843
23	0.7666666666666667	-0.25980130002588475	1.8384066408298547	-0.5889248364883257	-0.2769531425269828	1.838280419231204	-0.5279486835682757																-0.24272332659854814	1.8402861458714102	-0.6450026202976872	-0.23834037633674518	1.6952025607505912	-0.5945133195692163													-0.25618468744622486	1.9937011873367079	-0.6260284555712798	-0.2580779418255153	2.0519559994380634	-0.5482204294613096	-0.28192734528937646	1.9927878500579255	-0.5573596829016677	-0.2980394034067979	1.9185930702553937	-0.4969558599516913	-0.2720382818699953	1.962731782358589	-0.4692728116349314	-0.22555622917331847	1.9954933630044818	-0.6943573258118074	-1.216086320746813	1.8190191114647982	0.26042309540421826	-0.20162872407244947	1.8380100549118303	-0.7440703578538856
24	0.8	-0.2558140803794256	1.8424738177314148	-0.6059397326443834	-0.2713300472606845	1.8417662373000452	-0.5468280945875483																-0.23725833412866587	1.8436973313408722	-0.667263492726919	-0.23834037633674518	1.6952025607505912	-0.5945133195692163													-0.2538461418565427	1.99354706813569	-0.6368723372302861	-0.24745267895351564	2.0521014077626	-0.5756576203413493	-0.2808264887067531	1.9931659988985466	-0.571016166903888	-0.3000778971130266	1.9157866339472134	-0.5113916043065122	-0.2711129063401055	1.9610527994415292	-0.4911952678746288	-0.22376951989389626	1.9972555741230753	-0.7084695165898625	-1.1963200036020218	1.819222923679228	0.22463957662798328	-0.1957438051851718	1.839434532670539	-0.7542202797895187
25	0.8333333333333334	-0.25546921532276756	1.8412108548220165	-0.6230545928444218	-0.27128590697205285	1.8397550462352856	-0.5597000024321523																-0.23811934385066333	1.8429966462757	-0.6847552254368289	-0.23834037633674518	1.6952025607505912	-0.5945133195692163													-0.2513681617406482	1.9924726855365373	-0.6471388877036185	-0.24292653827180896	2.0530119046878563	-0.6058409571300984	-0.2756955549966685	1.989880994013224	-0.5715604678154907	-0.2922432353187871	1.9122017211454838	-0.5112791545098037	-0.27217073482971726	1.9619099105054258	-0.5034341695289941	-0.22365604269652414	1.996923673519322	-0.7279543370921802	-1.167892967169421	1.818938411514588	0.17055312723111227	-0.19178540720891407	1.8410327647164875	-0.7622836756585443
